<svg width="28" height="28" viewBox="0 0 28 28" fill="none" xmlns="http://www.w3.org/2000/svg">
<path d="M19.8332 7.46663C19.8332 10.7333 17.2665 13.3 13.9998 13.3C10.7332 13.3 8.1665 10.7333 8.1665 7.46663C8.1665 4.19997 10.7332 1.6333 13.9998 1.6333C17.2665 1.6333 19.8332 4.31663 19.8332 7.46663Z" fill="#34495E"/>
<path d="M14 14.8164C12.4834 14.8164 11.0834 15.1665 9.80003 15.7498C6.4167 17.2665 3.9667 20.4164 3.6167 24.1497C3.6167 25.4331 4.55003 26.4831 5.83337 26.4831H22.1667C23.45 26.4831 24.3834 25.4331 24.3834 24.1497C23.9167 20.2997 21.4667 17.1498 18.2 15.7498C16.9167 15.1665 15.5167 14.8164 14 14.8164Z" fill="#34495E"/>
</svg>
