<?xml version="1.0" encoding="utf-8"?>
<!-- Generator: $$$/GeneralStr/196=Adobe Illustrator 27.6.0, SVG Export Plug-In . SVG Version: 6.00 Build 0)  -->
<svg version="1.1" id="圖層_1" xmlns="http://www.w3.org/2000/svg" xmlns:xlink="http://www.w3.org/1999/xlink" x="0px" y="0px"
	 viewBox="0 0 512 512" style="enable-background:new 0 0 512 512;" xml:space="preserve">
<style type="text/css">
	.st0{clip-path:url(#SVGID_00000018936523270770077880000014690839686416444575_);fill:#CEE1F2;}
	.st1{clip-path:url(#SVGID_00000018936523270770077880000014690839686416444575_);fill:#195FB2;}
	.st2{clip-path:url(#SVGID_00000018936523270770077880000014690839686416444575_);fill:#2EAF34;}
</style>
<g>
	<defs>
		<rect id="SVGID_1_" width="512" height="512"/>
	</defs>
	<clipPath id="SVGID_00000028318596395533689680000013189328936913864350_">
		<use xlink:href="#SVGID_1_"  style="overflow:visible;"/>
	</clipPath>
	<path style="clip-path:url(#SVGID_00000028318596395533689680000013189328936913864350_);fill:#CEE1F2;" d="M80,452V60
		c0-22.1,17.9-40,40-40H60c-22.1,0-40,17.9-40,40v392c0,22.1,17.9,40,40,40h60C97.9,492,80,474.1,80,452"/>
	<path style="clip-path:url(#SVGID_00000028318596395533689680000013189328936913864350_);fill:#195FB2;" d="M332,512H60
		c-33.1,0-60-26.9-60-60V60C0,26.9,26.9,0,60,0h272c55.1,0,100,44.9,100,100v312C432,467.1,387.1,512,332,512 M60,40
		c-11,0-20,9-20,20v392c0,11,9,20,20,20h272c33.1,0,60-26.9,60-60V100c0-33.1-26.9-60-60-60H60z"/>
	<path style="clip-path:url(#SVGID_00000028318596395533689680000013189328936913864350_);fill:#2EAF34;" d="M216,76
		c-77.2,0-140,62.8-140,140s62.8,140,140,140s140-62.8,140-140S293.2,76,216,76 M314,196h-38.5c-1.3-24.3-4.9-47.7-11-67.4
		C289.6,142.6,308.1,167,314,196z M196.6,236h38.9c-2.5,43.4-13,70-19.4,78.2C209.5,306,199.1,279.4,196.6,236 M196.6,196
		c2.5-43.4,13-70,19.4-78.2c6.5,8.2,16.9,34.8,19.4,78.2H196.6z M167.5,128.6c-6.1,19.7-9.7,43.2-11,67.4H118
		C123.9,167,142.4,142.6,167.5,128.6 M118,236h38.5c1.3,24.3,4.9,47.7,11,67.4C142.4,289.4,123.9,265,118,236 M264.5,303.4
		c6.1-19.7,9.7-43.2,11-67.4H314C308.1,265,289.6,289.4,264.5,303.4z"/>
	<path style="clip-path:url(#SVGID_00000028318596395533689680000013189328936913864350_);fill:#195FB2;" d="M492,436
		c-11,0-20-9-20-20V96c0-11,9-20,20-20c11,0,20,9,20,20v320C512,427,503,436,492,436"/>
	<path style="clip-path:url(#SVGID_00000028318596395533689680000013189328936913864350_);fill:#195FB2;" d="M296,432H136
		c-11,0-20-9-20-20c0-11,9-20,20-20h160c11,0,20,9,20,20C316,423,307,432,296,432"/>
</g>
</svg>
