<?xml version="1.0" encoding="utf-8"?>
<!-- Generator: $$$/GeneralStr/196=Adobe Illustrator 27.6.0, SVG Export Plug-In . SVG Version: 6.00 Build 0)  -->
<svg version="1.1" id="圖層_1" xmlns="http://www.w3.org/2000/svg" xmlns:xlink="http://www.w3.org/1999/xlink" x="0px" y="0px"
	 viewBox="0 0 27 26" style="enable-background:new 0 0 27 26;" xml:space="preserve">
<style type="text/css">
	.st0{clip-path:url(#SVGID_00000110444680920169356770000015642876724797216702_);}
	.st1{fill:#303030;}
</style>
<g>
	<defs>
		<rect id="SVGID_1_" y="0" width="27" height="25.6"/>
	</defs>
	<clipPath id="SVGID_00000166655665402736703120000011515361849473645240_">
		<use xlink:href="#SVGID_1_"  style="overflow:visible;"/>
	</clipPath>
	<g style="clip-path:url(#SVGID_00000166655665402736703120000011515361849473645240_);">
		<path class="st1" d="M23,9.1h-5.4c-0.7,0-1.3-0.3-1.8-0.7C15.3,7.9,15,7.2,15,6.6V1.4c0-0.7,0.5-1.2,1.2-1.2
			c0.7,0,1.2,0.5,1.2,1.2v5.1c0.1,0.1,0.1,0.1,0.2,0.1H23c0.7,0,1.2,0.5,1.2,1.2S23.7,9.1,23,9.1z"/>
		<path class="st1" d="M20.3,25.8H6.7c-1,0-2-0.4-2.8-1.1C3.2,24,2.8,23,2.8,22V4c0-1,0.4-2,1.2-2.7c0.7-0.7,1.7-1.1,2.8-1.1h9.5
			c0.3,0,0.6,0.1,0.8,0.3L23.8,7c0.2,0.2,0.4,0.5,0.4,0.9V22c0,1-0.4,2-1.2,2.7C22.3,25.4,21.3,25.8,20.3,25.8z M6.7,2.6
			c-0.4,0-0.8,0.2-1.1,0.4C5.3,3.3,5.2,3.6,5.2,4v18c0,0.4,0.1,0.7,0.4,0.9c0.3,0.3,0.7,0.4,1.1,0.4h13.6c0.4,0,0.8-0.2,1.1-0.4
			c0.3-0.3,0.4-0.6,0.4-0.9V8.4l-6.1-5.7H6.7z"/>
		<path class="st1" d="M13.5,20.6c-0.7,0-1.2-0.5-1.2-1.2v-7.7c0-0.7,0.5-1.2,1.2-1.2c0.7,0,1.2,0.5,1.2,1.2v7.7
			C14.7,20.1,14.2,20.6,13.5,20.6z"/>
		<path class="st1" d="M13.5,20.6c-0.3,0-0.6-0.1-0.8-0.3l-4.1-3.9c-0.5-0.5-0.5-1.2,0-1.7c0.5-0.5,1.2-0.5,1.7,0l3.2,3.1l3.2-3.1
			c0.5-0.5,1.2-0.4,1.7,0c0.5,0.5,0.4,1.2,0,1.7l-4.1,3.9C14.1,20.5,13.8,20.6,13.5,20.6z"/>
	</g>
</g>
</svg>
