<svg width="20" height="21" viewBox="0 0 20 21" fill="none" xmlns="http://www.w3.org/2000/svg">
<path d="M12.0003 5.51221C12.0003 7.96221 10.167 9.88721 7.83366 9.88721C5.50033 9.88721 3.66699 7.96221 3.66699 5.51221C3.66699 3.06221 5.50033 1.13721 7.83366 1.13721C10.167 1.13721 12.0003 3.06221 12.0003 5.51221Z" fill="white"/>
<path d="M9.25033 15.3124C9.25033 13.8249 9.83366 12.5124 10.8337 11.6374C9.91699 11.1999 8.91699 11.0249 7.83366 11.0249C6.75032 11.0249 5.75033 11.2874 4.83366 11.7249C2.41699 12.8624 0.666992 15.2249 0.416992 18.0249C0.416992 18.9874 1.08366 19.7749 2.00033 19.7749H11.417C9.91699 18.9874 9.25033 17.2374 9.25033 15.3124Z" fill="white"/>
<path d="M15.3333 10.7622C12.9167 10.7622 11 12.7748 11 15.3123C11 17.8498 12.9167 19.8622 15.3333 19.8622C17.75 19.8622 19.6667 17.8498 19.6667 15.3123C19.6667 12.8623 17.6667 10.7622 15.3333 10.7622ZM17.1667 16.2747H16.1667V17.3247C16.1667 17.8497 15.75 18.2873 15.25 18.2873C14.75 18.2873 14.3333 17.8497 14.3333 17.3247V16.2747H13.3333C12.8333 16.2747 12.4167 15.8373 12.4167 15.3123C12.4167 14.7873 12.8333 14.3498 13.3333 14.3498H14.3333V13.2997C14.3333 12.7747 14.75 12.3372 15.25 12.3372C15.75 12.3372 16.1667 12.7747 16.1667 13.2997V14.3498H17.1667C17.6667 14.3498 18.0833 14.7873 18.0833 15.3123C18.0833 15.8373 17.6667 16.2747 17.1667 16.2747Z" fill="white"/>
</svg>
