<?xml version="1.0" encoding="utf-8"?>
<!-- Generator: $$$/GeneralStr/196=Adobe Illustrator 27.6.0, SVG Export Plug-In . SVG Version: 6.00 Build 0)  -->
<svg version="1.1" id="圖層_1" xmlns="http://www.w3.org/2000/svg" xmlns:xlink="http://www.w3.org/1999/xlink" x="0px" y="0px"
	 viewBox="0 0 512 512" style="enable-background:new 0 0 512 512;" xml:space="preserve">
<style type="text/css">
	.st0{clip-path:url(#SVGID_00000080194905969016366290000016161564970986129828_);fill:#C6E1F2;}
	.st1{clip-path:url(#SVGID_00000080194905969016366290000016161564970986129828_);fill:#195FB2;}
	.st2{clip-path:url(#SVGID_00000080194905969016366290000016161564970986129828_);fill:#2EAF34;}
</style>
<g>
	<defs>
		<rect id="SVGID_1_" width="512" height="512"/>
	</defs>
	<clipPath id="SVGID_00000135669169972360245040000008714903319333920916_">
		<use xlink:href="#SVGID_1_"  style="overflow:visible;"/>
	</clipPath>
	<path style="clip-path:url(#SVGID_00000135669169972360245040000008714903319333920916_);fill:#C6E1F2;" d="M401.5,301.5
		l-70.1,70.1c-17.4,17.4-29.3,39.6-34.1,63.7L286,492l56.7-11.3c1.9-0.4,3.8-0.8,5.7-1.3l15-81.6c4.8-24.1,16.7-46.3,34.1-63.7
		l18.3-18.3L401.5,301.5z"/>
	<path style="clip-path:url(#SVGID_00000135669169972360245040000008714903319333920916_);fill:#C6E1F2;" d="M80,392V120
		c0-50.9,38-93.8,87.2-100.2L120,20C64.8,20,20,64.8,20,120v272c0,55.2,44.8,100,100,100l52.1-0.3C120.5,487.6,80,444.6,80,392z"/>
	<path style="clip-path:url(#SVGID_00000135669169972360245040000008714903319333920916_);fill:#195FB2;" d="M206,512h-86
		C53.8,512,0,458.2,0,392V120C0,53.8,53.8,0,120,0h272c66.2,0,120,53.8,120,120v100c0,11-9,20-20,20s-20-9-20-20V120
		c0-44.1-35.9-80-80-80H120c-44.1,0-80,35.9-80,80v272c0,44.1,35.9,80,80,80h86c11,0,20,9,20,20S217,512,206,512 M233,140
		c0-33.1-26.9-60-60-60s-60,26.9-60,60s26.9,60,60,60S233,173.1,233,140 M193,140c0,11-9,20-20,20c-11,0-20-9-20-20c0-11,9-20,20-20
		C184,120,193,129,193,140 M432,194c0-11-9-20-20-20H288c-11,0-20,9-20,20c0,11,9,20,20,20h124C423,214,432,205,432,194 M284,334
		c0-11-9-20-20-20H118c-11,0-20,9-20,20c0,11,9,20,20,20h146C275,354,284,345,284,334 M204,404c0-11-9-20-20-20h-66
		c-11,0-20,9-20,20s9,20,20,20h66C195,424,204,415,204,404 M289.9,511.6l56.7-11.3c28.1-5.6,53.7-19.3,73.9-39.6l70.1-70.1
		c13.8-13.8,21.4-32.1,21.4-51.6c0-19.5-7.6-37.8-21.4-51.6C476.8,273.6,458.5,266,439,266s-37.8,7.6-51.6,21.4l-70.1,70.1
		c-20.3,20.3-33.9,45.8-39.6,73.9l-11.3,56.7c-1.3,6.6,0.7,13.3,5.5,18.1c3.8,3.8,8.9,5.9,14.1,5.9
		C287.3,512,288.6,511.9,289.9,511.6z M462.3,315.7c6.2,6.2,9.7,14.5,9.7,23.3c0,8.8-3.4,17.1-9.7,23.3l-70.1,70.1
		c-14.7,14.7-33.2,24.6-53.5,28.6l-27.3,5.4l5.4-27.3c4.1-20.3,14-38.8,28.6-53.5l70.1-70.1c6.2-6.2,14.5-9.7,23.3-9.7
		S456.1,309.4,462.3,315.7z"/>
	<path style="clip-path:url(#SVGID_00000135669169972360245040000008714903319333920916_);fill:#2EAF34;" d="M412,144H288
		c-11,0-20-9-20-20s9-20,20-20h124c11,0,20,9,20,20S423,144,412,144 M240.8,273.5c7.4-8.2,6.8-20.8-1.3-28.3
		c-16.4-15-37.8-23.2-60.1-23.2h-12.7c-22.3,0-43.7,8.2-60.1,23.2c-8.2,7.4-8.8,20.1-1.3,28.3c7.4,8.2,20.1,8.8,28.3,1.3
		c9.1-8.2,20.9-12.8,33.2-12.8h12.7c12.3,0,24.1,4.5,33.2,12.8c3.8,3.5,8.7,5.2,13.5,5.2C231.4,280,236.8,277.8,240.8,273.5z"/>
</g>
</svg>
