<?xml version="1.0" encoding="utf-8"?>
<!-- Generator: $$$/GeneralStr/196=Adobe Illustrator 27.6.0, SVG Export Plug-In . SVG Version: 6.00 Build 0)  -->
<svg version="1.1" id="圖層_1" xmlns="http://www.w3.org/2000/svg" xmlns:xlink="http://www.w3.org/1999/xlink" x="0px" y="0px"
	 viewBox="0 0 14.2 14.2" style="enable-background:new 0 0 14.2 14.2;" xml:space="preserve">
<style type="text/css">
	.st0{clip-path:url(#SVGID_00000029005875047385211190000004228874583533371066_);}
</style>
<g>
	<defs>
		<rect id="SVGID_1_" x="0.9" y="1.4" width="12.4" height="11.4"/>
	</defs>
	<clipPath id="SVGID_00000051385742563256296070000000791675025536411012_">
		<use xlink:href="#SVGID_1_"  style="overflow:visible;"/>
	</clipPath>
	<path style="clip-path:url(#SVGID_00000051385742563256296070000000791675025536411012_);" d="M9.7,9.7v3.1h2.1
		c0.9,0,1.6-0.7,1.6-1.6V6.5c0-0.3-0.1-0.5-0.3-0.7L8.6,2.1C7.8,1.2,6.5,1.2,5.7,1.9c0,0-0.1,0.1-0.1,0.1L1.2,5.8
		C1,6,0.9,6.3,0.9,6.5v4.7c0,0.9,0.7,1.6,1.6,1.6h2.1V9.7c0-1.4,1.1-2.6,2.5-2.6C8.4,7.1,9.7,8.2,9.7,9.7"/>
</g>
</svg>
