<?xml version="1.0" encoding="UTF-8"?><svg id="_圖層_1" xmlns="http://www.w3.org/2000/svg" xmlns:xlink="http://www.w3.org/1999/xlink" viewBox="0 0 512 511.98"><defs><style>.cls-1,.cls-2{fill:none;}.cls-3{fill:#2eaf34;}.cls-4{fill:#c6e1f2;}.cls-5{fill:#195fb2;}.cls-2{clip-path:url(#clippath);}</style><clipPath id="clippath"><rect class="cls-1" y="0" width="512" height="511.98"/></clipPath></defs><g class="cls-2"><path class="cls-4" d="m93.61,190.83l167.89-127.85c11.13-8.49,23.59-14.31,36.56-17.51.16-1.48,1.07-11.86,1.35-15.57-33.39-16.1-73.7-12.58-104.06,10.57L59.35,144.19c-24.8,18.92-39.35,48.32-39.35,79.51v168.27c0,52.28,40.12,95.18,91.25,99.62-19.25-18.23-31.25-44.02-31.25-72.62v-200.65c0-10.79,5.03-20.96,13.61-27.5"/><path class="cls-5" d="m392,511.98H120C53.83,511.98,0,458.14,0,391.98v-168.27c0-37.19,17.65-72.86,47.23-95.41L183.23,24.56c34.24-26.11,80.11-31.87,119.72-15.03,10.17,4.32,14.9,16.07,10.58,26.23-4.32,10.16-16.07,14.9-26.23,10.58-26.4-11.23-56.98-7.39-79.81,10.02l-136,103.73c-19.71,15.04-31.48,38.82-31.48,63.61v168.27c0,44.11,35.89,80,80,80h272c44.11,0,80-35.89,80-80v-89c0-11.05,8.95-20,20-20s20,8.95,20,20v89c0,66.17-53.83,120-120,120Zm-109.61-142.93c10.78-2.43,17.54-13.13,15.12-23.9-2.43-10.78-13.13-17.54-23.9-15.12-23.16,5.22-47.26-.05-66.15-14.45l-95.35-72.51c-8.79-6.69-21.34-4.98-28.03,3.81-6.69,8.79-4.98,21.34,3.81,28.03l95.33,72.49c21.14,16.12,46.65,24.6,72.69,24.6,8.81,0,17.69-.97,26.48-2.95"/><path class="cls-3" d="m511.99,193.14c.31-35.59-13.24-69.04-38.17-94.21-24.88-25.12-58.2-38.96-93.83-38.96s-68.66,13.92-93.7,39.2c-25.04,25.28-38.64,58.69-38.3,94.09.34,35.12,14.21,68.01,39.06,92.6,24.83,24.57,57.83,38.11,92.94,38.1h.06c18.91,0,36.88-3.36,51.94-9.69,10.18-4.28,14.97-16,10.69-26.19-4.28-10.18-16-14.97-26.19-10.69-10.21,4.29-22.82,6.56-36.47,6.57h-.04c-50.25,0-91.51-40.85-92-91.09-.24-24.64,9.25-47.92,26.72-65.56,17.47-17.64,40.65-27.35,65.28-27.35s48.1,9.62,65.41,27.1c17.38,17.55,26.83,40.92,26.59,65.81,0,.08,0,2.64,0,2.64,0,8.92-7.24,16.45-15.81,16.45s-16.19-7.69-16.19-16.45v-3.55c0-33.08-26.92-60-60-60s-60,26.92-60,60,26.92,60,60,60c14.85,0,28.44-5.43,38.93-14.4,10.35,9.3,23.45,14.4,37.26,14.4,30.77,0,55.81-25.32,55.81-56.49v-2.34Zm-131.99,18.83c-11.03,0-20-8.97-20-20s8.97-20,20-20,20,8.97,20,20-8.97,20-20,20"/></g></svg>