<?xml version="1.0" encoding="utf-8"?>
<!-- Generator: $$$/GeneralStr/196=Adobe Illustrator 27.6.0, SVG Export Plug-In . SVG Version: 6.00 Build 0)  -->
<svg version="1.1" id="圖層_1" xmlns="http://www.w3.org/2000/svg" xmlns:xlink="http://www.w3.org/1999/xlink" x="0px" y="0px"
	 viewBox="0 0 512 512" style="enable-background:new 0 0 512 512;" xml:space="preserve">
<style type="text/css">
	.st0{clip-path:url(#SVGID_00000075126923734455367360000003243324466059533996_);fill:#CEE1F2;}
	.st1{clip-path:url(#SVGID_00000075126923734455367360000003243324466059533996_);fill:#2EAF34;}
	.st2{clip-path:url(#SVGID_00000075126923734455367360000003243324466059533996_);fill:#195FB2;}
</style>
<g>
	<defs>
		<rect id="SVGID_1_" width="512" height="512"/>
	</defs>
	<clipPath id="SVGID_00000147209042594778266370000000760391140649829299_">
		<use xlink:href="#SVGID_1_"  style="overflow:visible;"/>
	</clipPath>
	<path style="clip-path:url(#SVGID_00000147209042594778266370000000760391140649829299_);fill:#CEE1F2;" d="M236,20h-60
		c-44.2,0-80,35.8-80,80v392h60V100C156,55.8,191.8,20,236,20"/>
	<path style="clip-path:url(#SVGID_00000147209042594778266370000000760391140649829299_);fill:#2EAF34;" d="M296,80
		c-11,0-20,9-20,20v20h-40v-20c0-11-9-20-20-20c-11,0-20,9-20,20v80c0,11,9,20,20,20c11,0,20-9,20-20v-20h40v20c0,11,9,20,20,20
		c11,0,20-9,20-20v-80C316,89,307,80,296,80"/>
	<path style="clip-path:url(#SVGID_00000147209042594778266370000000760391140649829299_);fill:#195FB2;" d="M492,472h-56v-43.4
		c23.3-8.3,40-30.5,40-56.6c0-33.1-26.9-60-60-60s-60,26.9-60,60c0,26.1,16.7,48.3,40,56.6V472h-80v-60c0-11-9-20-20-20h-80
		c-11,0-20,9-20,20v60h-80v-43.4c23.3-8.3,40-30.5,40-56.6s-16.7-48.3-40-56.6V100c0-33.1,26.9-60,60-60h160c33.1,0,60,26.9,60,60
		v152c0,11,9,20,20,20s20-9,20-20V100C436,44.9,391.1,0,336,0H176C120.9,0,76,44.9,76,100v215.4c-23.3,8.3-40,30.5-40,56.6
		s16.7,48.3,40,56.6V472H20c-11,0-20,9-20,20s9,20,20,20h472c11,0,20-9,20-20S503,472,492,472 M416,352c11,0,20,9,20,20s-9,20-20,20
		s-20-9-20-20S405,352,416,352 M96,352c11,0,20,9,20,20s-9,20-20,20s-20-9-20-20S85,352,96,352 M236,432h40v40h-40V432z"/>
	<path style="clip-path:url(#SVGID_00000147209042594778266370000000760391140649829299_);fill:#195FB2;" d="M236,252
		c0-11-9-20-20-20h-40c-11,0-20,9-20,20c0,11,9,20,20,20h40C227,272,236,263,236,252"/>
	<path style="clip-path:url(#SVGID_00000147209042594778266370000000760391140649829299_);fill:#195FB2;" d="M356,252
		c0-11-9-20-20-20h-40c-11,0-20,9-20,20c0,11,9,20,20,20h40C347,272,356,263,356,252"/>
	<path style="clip-path:url(#SVGID_00000147209042594778266370000000760391140649829299_);fill:#195FB2;" d="M216,352h80
		c11,0,20-9,20-20c0-11-9-20-20-20h-80c-11,0-20,9-20,20C196,343,205,352,216,352"/>
</g>
</svg>
