<?xml version="1.0" encoding="utf-8"?>
<!-- Generator: $$$/GeneralStr/196=Adobe Illustrator 27.6.0, SVG Export Plug-In . SVG Version: 6.00 Build 0)  -->
<svg version="1.1" id="圖層_1" xmlns="http://www.w3.org/2000/svg" xmlns:xlink="http://www.w3.org/1999/xlink" x="0px" y="0px"
	 viewBox="0 0 12.4 11.4" style="enable-background:new 0 0 12.4 11.4;" xml:space="preserve">
<style type="text/css">
	.st0{clip-path:url(#SVGID_00000078759063078885905180000012990237212878353821_);fill:#FFFFFF;}
</style>
<g>
	<defs>
		<rect id="SVGID_1_" y="0" width="12.4" height="11.4"/>
	</defs>
	<clipPath id="SVGID_00000114762766173970651980000018058876444589607330_">
		<use xlink:href="#SVGID_1_"  style="overflow:visible;"/>
	</clipPath>
	<path style="clip-path:url(#SVGID_00000114762766173970651980000018058876444589607330_);fill:#FFFFFF;" d="M8.8,8.3v3.1h2.1
		c0.9,0,1.6-0.7,1.6-1.6V5.1c0-0.3-0.1-0.5-0.3-0.7L7.7,0.7C6.9-0.2,5.6-0.2,4.8,0.5c0,0-0.1,0.1-0.1,0.1L0.3,4.4
		C0.1,4.6,0,4.9,0,5.1v4.7c0,0.9,0.7,1.6,1.6,1.6h2.1V8.3c0-1.4,1.1-2.6,2.5-2.6C7.6,5.7,8.8,6.8,8.8,8.3"/>
</g>
</svg>
