<svg width="27" height="26" viewBox="0 0 27 26" fill="none" xmlns="http://www.w3.org/2000/svg">
<g clip-path="url(#clip0_87_1330)">
<path d="M15.75 3.19531V7.45579C15.75 7.73827 15.8685 8.00919 16.0795 8.20894C16.2905 8.40869 16.5766 8.5209 16.875 8.5209H21.375" stroke="#303030" stroke-width="2" stroke-linecap="round" stroke-linejoin="round"/>
<path d="M19.125 22.3674H7.875C7.27826 22.3674 6.70597 22.143 6.28401 21.7435C5.86205 21.344 5.625 20.8022 5.625 20.2372V5.32555C5.625 4.76058 5.86205 4.21874 6.28401 3.81924C6.70597 3.41975 7.27826 3.19531 7.875 3.19531H15.75L21.375 8.5209V20.2372C21.375 20.8022 21.1379 21.344 20.716 21.7435C20.294 22.143 19.7217 22.3674 19.125 22.3674Z" stroke="#303030" stroke-width="2" stroke-linecap="round" stroke-linejoin="round"/>
<path d="M13.5 11.7163V18.107" stroke="#303030" stroke-width="2" stroke-linecap="round" stroke-linejoin="round"/>
<path d="M10.125 14.9116L13.5 18.107L16.875 14.9116" stroke="#303030" stroke-width="2" stroke-linecap="round" stroke-linejoin="round"/>
</g>
<defs>
<clipPath id="clip0_87_1330">
<rect width="27" height="25.5628" fill="white"/>
</clipPath>
</defs>
</svg>
