<?xml version="1.0" encoding="utf-8"?>
<!-- Generator: $$$/GeneralStr/196=Adobe Illustrator 27.6.0, SVG Export Plug-In . SVG Version: 6.00 Build 0)  -->
<svg version="1.1" id="圖層_1" xmlns="http://www.w3.org/2000/svg" xmlns:xlink="http://www.w3.org/1999/xlink" x="0px" y="0px"
	 viewBox="0 0 28 28" style="enable-background:new 0 0 28 28;" xml:space="preserve">
<style type="text/css">
	.st0{fill:#FFFFFF;}
</style>
<path class="st0" d="M19.8,7.5c0,3.3-2.6,5.8-5.8,5.8c-3.3,0-5.8-2.6-5.8-5.8c0-3.3,2.6-5.8,5.8-5.8C17.3,1.6,19.8,4.3,19.8,7.5z"/>
<path class="st0" d="M14,14.8c-1.5,0-2.9,0.4-4.2,0.9c-3.4,1.5-5.8,4.7-6.2,8.4c0,1.3,0.9,2.3,2.2,2.3h16.3c1.3,0,2.2-1.1,2.2-2.3
	c-0.5-3.9-2.9-7-6.2-8.4C16.9,15.2,15.5,14.8,14,14.8z"/>
</svg>
